<svg viewBox="0 0 128 128" version="1.1" xmlns="http://www.w3.org/2000/svg" >
<path d="M 46.542969,8.8183594 V 41.65625 Z M 22.526367,22.87793 32.111328,36.835938 c 2.219982,0 4.138672,-1.807499 4.138672,-4.117188 z m 69.22168,9.84082 c 0,2.309689 1.918702,4.117188 4.138672,4.117188 L 105.47266,22.87793 Z M 8.703125,47.080078 c 0,0 31.986346,0.401687 32.591797,0 z m 77.900391,0 c 0.60546,0.401687 32.593754,0 32.593754,0 z M 8.703125,64 h 23.509766 z m 86.476563,0.552734 H 119.19727 Z M 30.716797,80.744141 C 21.19752,80.763751 8.703125,80.919922 8.703125,80.919922 H 41.294922 C 41.067876,80.76929 36.428362,80.732373 30.716797,80.744141 Z m 66.464844,0 c -5.71156,-0.01177 -10.351065,0.02515 -10.578125,0.175781 h 32.593754 c 0,0 -12.49634,-0.156168 -22.015629,-0.175781 z M 46.542969,86.34375 v 32.83789 z M 22.526367,105.12207 36.25,95.28125 c 0,-2.309688 -1.91869,-4.117188 -4.138672,-4.117188 z M 95.886719,91.164062 c -2.21997,0 -4.138672,1.8075 -4.138672,4.117188 l 13.724613,9.84082 z" fill="none" stroke="#537" stroke-width="2" />
<ellipse cx="90.134911" cy="64.552322" rx="5" ry="5" fill="#f58" stroke="#537" />
<ellipse cx="37.359882" cy="64.552322" rx="5" ry="5" fill="#f58" stroke="#537" />
<ellipse cx="63.696949" cy="47.079037" rx="5" ry="5" fill="#f58" stroke="#537" />
<ellipse cx="81.557716" cy="47.079037" rx="5" ry="5" fill="#f58" stroke="#537" />
<ellipse cx="46.340717" cy="47.079037" rx="5" ry="5" fill="#f58" stroke="#537" />
<ellipse cx="63.696949" cy="80.920975" rx="5" ry="5" fill="#f58" stroke="#537" />
<ellipse cx="81.557716" cy="80.920975" rx="5" ry="5" fill="#f58" stroke="#537" />
<ellipse cx="55.018841" cy="64.552322" rx="5" ry="5" fill="#f58" stroke="#537" />
<ellipse cx="72.274139" cy="64.552322" rx="5" ry="5" fill="#f58" stroke="#537" />
<ellipse cx="46.340717" cy="80.920975" rx="5" ry="5" fill="#f58" stroke="#537" />
<rect x="53.771408" y="11.745543" width="3" height="3" fill="#c48" />
<rect x="53.771408" y="18.645542" width="3" height="3" fill="#c48" />
<rect x="53.771408" y="25.645542" width="3" height="3" fill="#c48" />
<rect x="53.771408" y="32.545544" width="3" height="3" fill="#c48" />
<rect x="71.22834" y="14.819335" width="3" height="3" fill="#c48" />
<rect x="71.22834" y="21.719336" width="3" height="3" fill="#c48" />
<rect x="71.22834" y="28.719336" width="3" height="3" fill="#c48" />
<rect x="71.22834" y="35.619335" width="3" height="3" fill="#c48" />
<rect x="71.22834" y="90.229027" width="3" height="3" fill="#c48" />
<rect x="71.22834" y="97.129021" width="3" height="3" fill="#c48" />
<rect x="71.22834" y="104.12902" width="3" height="3" fill="#c48" />
<rect x="71.22834" y="111.02902" width="3" height="3" fill="#c48" />
<rect x="53.771408" y="93.380684" width="3" height="3" fill="#c48" />
<rect x="53.771408" y="100.28068" width="3" height="3" fill="#c48" />
<rect x="53.771408" y="107.28068" width="3" height="3" fill="#c48" />
<rect x="53.771408" y="114.18068" width="3" height="3" fill="#c48" />
<rect x="25.801193" y="70.871033" width="3" height="3" fill="#c48" />
<rect x="18.251764" y="70.871033" width="3" height="3" fill="#c48" />
<rect x="10.702335" y="70.871033" width="3" height="3" fill="#c48" />
<rect x="10.702336" y="54.128979" width="3" height="3" fill="#c48" />
<rect x="25.801193" y="54.128979" width="3" height="3" fill="#c48" />
<rect x="18.251764" y="54.128979" width="3" height="3" fill="#c48" />
<rect x="114.19651" y="70.871033" width="3" height="3" fill="#c48" />
<rect x="106.64708" y="70.871033" width="3" height="3" fill="#c48" />
<rect x="99.097656" y="70.871033" width="3" height="3" fill="#c48" />
<rect x="99.097656" y="54.128979" width="3" height="3" fill="#c48" />
<rect x="114.19651" y="54.128979" width="3" height="3" fill="#c48" />
<rect x="106.64708" y="54.128979" width="3" height="3" fill="#c48" />
</svg>
